<?xml version="1.0" standalone="no"?>
<!DOCTYPE svg PUBLIC "-//W3C//DTD SVG 20010904//EN"
 "http://www.w3.org/TR/2001/REC-SVG-20010904/DTD/svg10.dtd">
<svg version="1.0" xmlns="http://www.w3.org/2000/svg"
 width="658.000000pt" height="658.000000pt" viewBox="0 0 658.000000 658.000000"
 preserveAspectRatio="xMidYMid meet">

<g transform="translate(0.000000,658.000000) scale(0.100000,-0.100000)"
fill="#030A8C" stroke="none">
<path d="M3007 6290 c-363 -35 -701 -132 -1032 -295 -316 -156 -582 -349 -815
-591 -421 -438 -692 -979 -789 -1573 -95 -579 -16 -1166 229 -1701 382 -834
1146 -1450 2045 -1649 321 -71 727 -85 1063 -36 393 57 845 230 1176 450 663
439 1117 1108 1271 1870 68 337 79 692 30 1017 -95 632 -378 1198 -820 1644
-454 457 -1027 748 -1667 845 -151 23 -541 34 -691 19z m544 -365 c336 -39
658 -141 954 -303 55 -30 108 -60 118 -67 20 -14 34 0 -248 -244 -388 -337
-585 -508 -754 -660 -215 -192 -250 -214 -345 -213 -57 0 -81 9 -336 127 -151
70 -446 206 -655 302 -209 96 -448 207 -532 245 -103 48 -156 67 -166 61 -9
-4 -119 -106 -245 -226 -127 -119 -245 -229 -263 -244 l-32 -27 16 30 c9 16
44 70 79 121 418 606 1087 1008 1826 1098 148 18 431 18 583 0z m1494 -764
c23 -10 54 -33 69 -52 68 -80 73 -152 20 -258 -41 -82 -50 -92 -635 -697 -631
-653 -594 -608 -587 -723 4 -59 24 -111 190 -496 102 -236 256 -594 343 -794
l157 -364 -68 -68 c-38 -38 -74 -69 -82 -69 -7 0 -66 33 -130 74 -64 40 -127
79 -140 85 -21 11 -31 4 -140 -100 -137 -132 -452 -440 -739 -723 l-202 -199
-113 12 c-62 7 -115 14 -118 17 -2 3 29 38 70 77 760 733 1017 984 1027 1003
16 28 5 60 -28 90 -83 75 -854 674 -868 674 -9 0 -120 -48 -246 -106 -127 -59
-290 -134 -364 -168 -84 -38 -142 -71 -153 -87 -19 -26 -19 -28 23 -291 l43
-266 -259 -266 c-142 -146 -260 -266 -263 -266 -12 0 -72 43 -72 51 0 5 43 55
96 111 81 86 94 104 90 127 -3 14 -20 117 -37 229 -28 175 -35 205 -52 214
-19 10 -41 -11 -221 -196 -111 -114 -207 -206 -213 -206 -7 0 -20 11 -29 25
l-17 26 202 195 c110 108 201 202 201 209 0 26 -31 35 -250 70 l-224 36 -40
-38 c-23 -21 -67 -62 -98 -92 -32 -30 -59 -53 -61 -50 -24 29 -67 101 -66 111
0 14 469 447 499 461 11 6 104 -8 254 -37 253 -49 293 -53 318 -33 21 16 378
721 378 746 0 16 -160 239 -589 821 -71 97 -85 110 -118 110 -30 0 -118 -83
-907 -849 -218 -212 -199 -209 -209 -26 l-7 110 58 50 c346 300 942 834 942
845 0 4 -47 78 -105 163 l-105 156 71 58 c39 32 75 57 79 56 12 -3 310 -118
555 -212 110 -43 295 -114 410 -159 116 -45 316 -122 445 -172 210 -82 242
-91 300 -91 74 0 136 19 189 58 20 16 149 123 286 239 623 527 914 768 967
799 112 66 198 81 273 46z m526 -644 c116 -230 197 -475 239 -724 83 -496 25
-989 -171 -1452 -189 -447 -526 -854 -940 -1132 -50 -34 -90 -57 -88 -51 2 5
103 101 224 213 121 111 224 212 228 223 7 16 -13 72 -81 231 -49 116 -183
431 -297 700 -114 270 -234 553 -267 629 -32 77 -62 152 -65 167 -11 55 16 99
151 243 105 114 627 683 931 1017 71 77 63 81 136 -64z m-4536 -129 c42 -62
77 -116 78 -120 2 -7 -344 -318 -355 -318 -12 0 53 224 99 340 46 116 90 210
98 210 2 0 38 -51 80 -112z m818 -1120 c62 -73 116 -138 120 -145 9 -14 -100
-213 -116 -213 -7 0 -104 9 -217 20 -113 11 -220 20 -239 20 -30 0 -57 -24
-287 -250 -140 -137 -258 -250 -262 -250 -5 0 -15 22 -24 48 l-15 49 325 299
c179 164 386 356 461 426 75 70 137 127 138 127 1 1 53 -59 116 -131z m1296
-1272 c72 -65 131 -122 131 -125 -1 -3 -207 -215 -459 -470 l-457 -464 -52 18
c-29 11 -51 22 -50 25 2 4 126 123 276 265 151 142 277 267 281 279 4 12 2
107 -5 211 -7 105 -13 211 -13 237 l-1 48 98 50 c53 27 102 48 109 47 6 -1 70
-56 142 -121z m1131 -872 c55 -42 102 -80 105 -85 11 -17 -221 -110 -409 -164
-113 -33 -197 -45 -195 -27 1 9 381 351 391 351 5 1 53 -33 108 -75z"/>
</g>
</svg>
